<?xml version="1.0" encoding="UTF-8" standalone="no"?>
<!-- Created with Inkscape (http://www.inkscape.org/) -->

<svg
   xmlns:dc="http://purl.org/dc/elements/1.1/"
   xmlns:cc="http://creativecommons.org/ns#"
   xmlns:rdf="http://www.w3.org/1999/02/22-rdf-syntax-ns#"
   xmlns:svg="http://www.w3.org/2000/svg"
   xmlns="http://www.w3.org/2000/svg"
   xmlns:sodipodi="http://sodipodi.sourceforge.net/DTD/sodipodi-0.dtd"
   xmlns:inkscape="http://www.inkscape.org/namespaces/inkscape"
   version="1.1"
   id="svg22"
   width="528.0661"
   height="432.7597">
  <metadata
     id="metadata28">
    <rdf:RDF>
      <cc:Work
         rdf:about="">
        <dc:format>image/svg+xml</dc:format>
        <dc:type
           rdf:resource="http://purl.org/dc/dcmitype/StillImage" />
      </cc:Work>
    </rdf:RDF>
  </metadata>
  <defs
     id="defs26" />
  <sodipodi:namedview
     pagecolor="#ffffff"
     bordercolor="#666666"
     borderopacity="1"
     objecttolerance="10"
     gridtolerance="10"
     guidetolerance="10"
     inkscape:pageopacity="0"
     inkscape:pageshadow="2"
     inkscape:window-width="640"
     inkscape:window-height="480"
     id="namedview24" />
  <inkscape:clipboard
     style="font-variant-east_asian:normal;opacity:1;vector-effect:none;fill:#000000;fill-opacity:1;stroke-width:3.77952756;stroke-linecap:butt;stroke-linejoin:miter;stroke-miterlimit:4;stroke-dasharray:none;stroke-dashoffset:0;stroke-opacity:1"
     min="144.53838,357.90587"
     max="672.60448,790.66556" />
  <g
     transform="matrix(3.7795276,0,0,3.7795276,-130.25266,-243.2827)"
     inkscape:label="Camada 1"
     id="layer1-3">
    <g
       id="g3723"
       transform="matrix(0.26458333,0,0,0.26458333,25.572128,10.247705)">
      <path
         d="m 412.9,581 c -56.3,-19.8 -83.6,14.6 -91,26.3 -7.5,-11.7 -34.7,-46.1 -91,-26.3 0,0 -47.7,21.8 -75,3.1 0,0 22.2,50.9 86,53.1 51.7,1.7 73.5,-16.6 80,-23.5 6.4,6.9 28.2,25.2 79.8,23.5 63.8,-2.1 86,-53.1 86,-53.1 -27.1,18.7 -74.8,-3.1 -74.8,-3.1 z"
         id="path4349"
         inkscape:connector-curvature="0"
         style="fill:#f9f9f9" />
      <path
         d="M 545.8,229.5 C 517.2,188.6 469.1,204.3 419,231.6 368.8,258.8 298.6,240.2 298.6,240.2 209.7,202.8 78.8,202.8 39.2,307.3 23.3,349.1 41.9,397 87,415.9 c 16.4,6.8 34.2,11.3 51.9,12.9 23.8,2 49.3,5.9 62.8,27.9 9.3,15 3,40.2 -6.4,50.1 -9.3,10 -1.4,16.6 -1.4,16.6 0,0 24.3,27.9 83.8,7.9 59.6,-20.1 116.5,-1.8 116.5,-1.8 32.3,11.5 47.3,-5.8 47.3,-9.3 0,-3.5 -6.4,-2.1 -6.4,-2.1 0,0 -18.3,6.8 -44.9,-11.9 -26.5,-18.5 -76,-20 -110.4,-1.4 -34.4,18.7 -67.4,8.6 -56.6,2.1 6.2,-3.7 10.2,-13.3 12.6,-20.9 2.7,-8.9 3.4,-18.4 1.6,-27.5 -5.2,-27.2 -27.7,-36.8 -27.7,-36.8 47.3,-16.7 60.3,-63.3 60.3,-74 0,-10.8 -5.1,-5 -5.1,-5 0,0 -18,30 -76,48.7 -58,18.7 -132.6,-15 -102.5,-85.3 30.1,-70.2 139.1,-73.7 212.9,-35.1 40.1,21.1 74.4,17.1 97.5,9.2 13.4,-4.7 25.8,-12.3 36.4,-21.8 10.9,-9.9 36.5,-29.2 68.2,-25.3 19,2.3 29.2,14.3 34.8,27 9.3,20.9 6.5,45.3 -6.1,64.4 -14.3,21.7 -36.4,31.8 -57.2,36.5 -24.1,5.2 -49,3.3 -72.2,-5 -26.2,-9.3 -46.3,-8.4 -46.3,-8.4 -45.7,0.6 -69.1,24.6 -78.3,37.4 -1.7,2.4 0.7,5.4 3.3,4.4 69,-27.4 118,-0.4 133.8,10.6 14.3,9.9 6.5,49.5 4.2,59.9 -0.7,3.3 -1.3,6.5 -1.4,9.9 -2,35.4 30.1,44.9 30.1,44.9 C 423.9,428.7 469,392.8 469,392.8 572.4,367.1 574.6,270.3 545.8,229.5 Z"
         id="path4351"
         inkscape:connector-curvature="0"
         style="fill:#f9f9f9" />
    </g>
  </g>
</svg>
